<svg width="1062" height="748" viewBox="0 0 1062 748" fill="none" xmlns="http://www.w3.org/2000/svg">
<g clip-path="url(#clip0_1215_1292)">
<rect width="1062" height="748" fill="#3478F6"/>
<path d="M-71.5 641.5C-71.5 641.5 155.828 56.9842 366 150C504.709 211.389 451.744 393.927 578 478C858.193 664.58 1151 -141 1151 -141" stroke="url(#paint0_linear_1215_1292)" stroke-opacity="0.5" stroke-width="150"/>
<path d="M171.116 93.1641C176.617 91.6112 182.529 93.111 186.624 97.0988L221.006 130.576C225.102 134.563 226.759 140.433 225.353 145.974L213.552 192.488C212.146 198.028 207.891 202.398 202.39 203.951L156.208 216.988C150.706 218.541 144.794 217.041 140.699 213.054L106.317 179.577C102.222 175.589 100.565 169.719 101.97 164.179L113.771 117.665C115.177 112.124 119.432 107.754 124.933 106.201L171.116 93.1641Z" fill="white"/>
<path d="M162.911 154.629V188.513L133.871 171.917V138.033L162.911 154.629Z" fill="#3478F6"/>
<path opacity="0.25" d="M162.91 154.629L191.95 138.033V171.917L162.91 188.513V154.629Z" fill="#3478F6"/>
<path opacity="0.5" d="M162.911 121.436L191.951 138.032L162.911 154.628L133.871 138.032L162.911 121.436Z" fill="#3478F6"/>
<path d="M470.204 696.12C469.74 695.144 469.068 694.392 468.188 693.864C467.308 693.32 466.284 693.048 465.116 693.048C463.948 693.048 462.892 693.32 461.948 693.864C461.02 694.392 460.284 695.16 459.74 696.168C459.212 697.16 458.948 698.312 458.948 699.624C458.948 700.936 459.212 702.088 459.74 703.08C460.284 704.072 461.02 704.84 461.948 705.384C462.892 705.912 463.948 706.176 465.116 706.176C466.748 706.176 468.092 705.688 469.148 704.712C470.204 703.736 470.82 702.416 470.996 700.752H464.324V698.976H473.324V700.656C473.196 702.032 472.764 703.296 472.028 704.448C471.292 705.584 470.324 706.488 469.124 707.16C467.924 707.816 466.588 708.144 465.116 708.144C463.564 708.144 462.148 707.784 460.868 707.064C459.588 706.328 458.572 705.312 457.82 704.016C457.084 702.72 456.716 701.256 456.716 699.624C456.716 697.992 457.084 696.528 457.82 695.232C458.572 693.92 459.588 692.904 460.868 692.184C462.148 691.448 463.564 691.08 465.116 691.08C466.892 691.08 468.46 691.52 469.82 692.4C471.196 693.28 472.196 694.52 472.82 696.12H470.204ZM478.395 693.048V698.64H484.491V700.44H478.395V706.2H485.211V708H476.211V691.248H485.211V693.048H478.395ZM498.812 691.272V693.048H494.252V708H492.068V693.048H487.484V691.272H498.812ZM509.876 699.384C510.484 699.48 511.036 699.728 511.532 700.128C512.044 700.528 512.444 701.024 512.732 701.616C513.036 702.208 513.188 702.84 513.188 703.512C513.188 704.36 512.972 705.128 512.54 705.816C512.108 706.488 511.476 707.024 510.644 707.424C509.828 707.808 508.86 708 507.74 708H501.5V691.272H507.5C508.636 691.272 509.604 691.464 510.404 691.848C511.204 692.216 511.804 692.72 512.204 693.36C512.604 694 512.804 694.72 512.804 695.52C512.804 696.512 512.532 697.336 511.988 697.992C511.46 698.632 510.756 699.096 509.876 699.384ZM503.684 698.496H507.356C508.38 698.496 509.172 698.256 509.732 697.776C510.292 697.296 510.572 696.632 510.572 695.784C510.572 694.936 510.292 694.272 509.732 693.792C509.172 693.312 508.364 693.072 507.308 693.072H503.684V698.496ZM507.548 706.2C508.636 706.2 509.484 705.944 510.092 705.432C510.7 704.92 511.004 704.208 511.004 703.296C511.004 702.368 510.684 701.64 510.044 701.112C509.404 700.568 508.548 700.296 507.476 700.296H503.684V706.2H507.548ZM518.403 706.224H524.259V708H516.219V691.272H518.403V706.224ZM534.162 708.168C532.61 708.168 531.194 707.808 529.914 707.088C528.634 706.352 527.618 705.336 526.866 704.04C526.13 702.728 525.762 701.256 525.762 699.624C525.762 697.992 526.13 696.528 526.866 695.232C527.618 693.92 528.634 692.904 529.914 692.184C531.194 691.448 532.61 691.08 534.162 691.08C535.73 691.08 537.154 691.448 538.434 692.184C539.714 692.904 540.722 693.912 541.458 695.208C542.194 696.504 542.562 697.976 542.562 699.624C542.562 701.272 542.194 702.744 541.458 704.04C540.722 705.336 539.714 706.352 538.434 707.088C537.154 707.808 535.73 708.168 534.162 708.168ZM534.162 706.272C535.33 706.272 536.378 706 537.306 705.456C538.25 704.912 538.986 704.136 539.514 703.128C540.058 702.12 540.33 700.952 540.33 699.624C540.33 698.28 540.058 697.112 539.514 696.12C538.986 695.112 538.258 694.336 537.33 693.792C536.402 693.248 535.346 692.976 534.162 692.976C532.978 692.976 531.922 693.248 530.994 693.792C530.066 694.336 529.33 695.112 528.786 696.12C528.258 697.112 527.994 698.28 527.994 699.624C527.994 700.952 528.258 702.12 528.786 703.128C529.33 704.136 530.066 704.912 530.994 705.456C531.938 706 532.994 706.272 534.162 706.272ZM544.63 699.624C544.63 697.992 544.998 696.528 545.734 695.232C546.47 693.92 547.47 692.896 548.734 692.16C550.014 691.424 551.43 691.056 552.982 691.056C554.806 691.056 556.398 691.496 557.758 692.376C559.118 693.256 560.11 694.504 560.734 696.12H558.118C557.654 695.112 556.982 694.336 556.102 693.792C555.238 693.248 554.198 692.976 552.982 692.976C551.814 692.976 550.766 693.248 549.838 693.792C548.91 694.336 548.182 695.112 547.654 696.12C547.126 697.112 546.862 698.28 546.862 699.624C546.862 700.952 547.126 702.12 547.654 703.128C548.182 704.12 548.91 704.888 549.838 705.432C550.766 705.976 551.814 706.248 552.982 706.248C554.198 706.248 555.238 705.984 556.102 705.456C556.982 704.912 557.654 704.136 558.118 703.128H560.734C560.11 704.728 559.118 705.968 557.758 706.848C556.398 707.712 554.806 708.144 552.982 708.144C551.43 708.144 550.014 707.784 548.734 707.064C547.47 706.328 546.47 705.312 545.734 704.016C544.998 702.72 544.63 701.256 544.63 699.624ZM573.057 708L566.169 700.368V708H563.985V691.272H566.169V699.024L573.081 691.272H575.841L568.257 699.648L575.913 708H573.057ZM579.048 708.144C578.632 708.144 578.28 708 577.992 707.712C577.704 707.424 577.56 707.072 577.56 706.656C577.56 706.24 577.704 705.888 577.992 705.6C578.28 705.312 578.632 705.168 579.048 705.168C579.448 705.168 579.784 705.312 580.056 705.6C580.344 705.888 580.488 706.24 580.488 706.656C580.488 707.072 580.344 707.424 580.056 707.712C579.784 708 579.448 708.144 579.048 708.144ZM585.575 691.272V708H583.391V691.272H585.575ZM596.881 708.168C595.329 708.168 593.913 707.808 592.633 707.088C591.353 706.352 590.337 705.336 589.585 704.04C588.849 702.728 588.481 701.256 588.481 699.624C588.481 697.992 588.849 696.528 589.585 695.232C590.337 693.92 591.353 692.904 592.633 692.184C593.913 691.448 595.329 691.08 596.881 691.08C598.449 691.08 599.873 691.448 601.153 692.184C602.433 692.904 603.441 693.912 604.177 695.208C604.913 696.504 605.281 697.976 605.281 699.624C605.281 701.272 604.913 702.744 604.177 704.04C603.441 705.336 602.433 706.352 601.153 707.088C599.873 707.808 598.449 708.168 596.881 708.168ZM596.881 706.272C598.049 706.272 599.097 706 600.025 705.456C600.969 704.912 601.705 704.136 602.233 703.128C602.777 702.12 603.049 700.952 603.049 699.624C603.049 698.28 602.777 697.112 602.233 696.12C601.705 695.112 600.977 694.336 600.049 693.792C599.121 693.248 598.065 692.976 596.881 692.976C595.697 692.976 594.641 693.248 593.713 693.792C592.785 694.336 592.049 695.112 591.505 696.12C590.977 697.112 590.713 698.28 590.713 699.624C590.713 700.952 590.977 702.12 591.505 703.128C592.049 704.136 592.785 704.912 593.713 705.456C594.657 706 595.713 706.272 596.881 706.272Z" fill="white"/>
<g filter="url(#filter0_d_1215_1292)">
<path d="M579.734 227.953L586.21 226.062L586.216 229.585L580.443 231.44L579.734 227.953Z" fill="#0FA959"/>
<path d="M591.576 253.154L585.1 255.046L585.094 251.522L590.868 249.668L591.576 253.154Z" fill="#0FA959"/>
<ellipse cx="583.07" cy="241.315" rx="13.8988" ry="6.73115" transform="rotate(79.7972 583.07 241.315)" fill="#0FA959"/>
<ellipse cx="588.978" cy="239.674" rx="13.8988" ry="6.73115" transform="rotate(79.7972 588.978 239.674)" fill="#00C860"/>
</g>
<g filter="url(#filter1_d_1215_1292)">
<path d="M632.906 148.881L637.34 144.795L634.645 143.166L630.563 146.731L632.906 148.881Z" fill="#0FA959"/>
<path d="M619.074 128.195L614.641 132.281L617.335 133.911L621.417 130.345L619.074 128.195Z" fill="#0FA959"/>
<ellipse rx="12.4217" ry="6.01581" transform="matrix(-0.751738 -0.659461 -0.659461 0.751738 624.218 140.161)" fill="#0FA959"/>
<ellipse rx="12.4217" ry="6.01581" transform="matrix(-0.751738 -0.659461 -0.659461 0.751738 628.201 136.393)" fill="#00C860"/>
</g>
<g filter="url(#filter2_d_1215_1292)">
<path d="M464.118 325.759L466.013 318.92L462.307 318.965L460.44 325.064L464.118 325.759Z" fill="#0FA959"/>
<path d="M437.441 313.665L435.546 320.504L439.251 320.459L441.118 314.36L437.441 313.665Z" fill="#0FA959"/>
<ellipse rx="14.6204" ry="7.08062" transform="matrix(-0.986535 -0.163552 -0.163552 0.986535 450.014 322.438)" fill="#0FA959"/>
<ellipse rx="14.6204" ry="7.08062" transform="matrix(-0.986535 -0.163552 -0.163552 0.986535 451.659 316.201)" fill="#00C860"/>
</g>
<path opacity="0.3" fill-rule="evenodd" clip-rule="evenodd" d="M695.59 340.593L531.408 245.482V438.082L695.59 533.193V340.593Z" fill="#3364ED"/>
<path opacity="0.701597" fill-rule="evenodd" clip-rule="evenodd" d="M531.406 628.314L367.225 533.203L533.785 435.715L697.967 530.826L531.406 628.314Z" fill="#3364ED"/>
<path opacity="0.5" fill-rule="evenodd" clip-rule="evenodd" d="M367.227 340.593L531.408 245.482V438.082L367.227 533.193V340.593Z" fill="#3364ED"/>
<path fill-rule="evenodd" clip-rule="evenodd" d="M402.924 361.029L532.603 436.153V588.279L402.924 513.155V361.029Z" fill="url(#paint1_linear_1215_1292)"/>
<path fill-rule="evenodd" clip-rule="evenodd" d="M532.603 285.904L662.283 361.028L532.603 436.152L402.924 361.028L532.603 285.904Z" fill="url(#paint2_linear_1215_1292)"/>
<path fill-rule="evenodd" clip-rule="evenodd" d="M662.283 361.029L532.604 436.153V588.279L662.283 513.155V361.029Z" fill="url(#paint3_linear_1215_1292)"/>
<path fill-rule="evenodd" clip-rule="evenodd" d="M367.225 340.59L531.406 435.701V628.3L367.225 533.189V340.59Z" stroke="url(#paint4_linear_1215_1292)" stroke-width="1.08023" stroke-linejoin="round"/>
<path fill-rule="evenodd" clip-rule="evenodd" d="M695.59 340.59L531.408 435.701V628.3L695.59 533.189V340.59Z" stroke="url(#paint5_linear_1215_1292)" stroke-width="1.08023" stroke-linejoin="round"/>
<path fill-rule="evenodd" clip-rule="evenodd" d="M531.406 245.482L695.587 340.593L531.406 435.704L367.225 340.593L531.406 245.482Z" stroke="url(#paint6_linear_1215_1292)" stroke-width="1.08023" stroke-linejoin="round"/>
<g filter="url(#filter3_d_1215_1292)">
<path d="M556.931 248.381L456.334 227.961L471.949 216.55L562.036 203.037L597.77 212.046L556.931 248.381Z" fill="#E6E6E6"/>
<path d="M535.01 338.169L456.334 227.963L556.931 248.383L535.01 338.169Z" fill="white"/>
<path d="M597.77 212.047L535.01 338.168L556.931 248.382L597.77 212.047Z" fill="#F2F2F2"/>
<path d="M598.37 197.331L527.502 61L556.33 233.967L598.37 197.331Z" fill="#F2F2F2"/>
<path d="M455.732 213.247L527.502 61L556.329 233.967L455.732 213.247Z" fill="white"/>
</g>
<path fill-rule="evenodd" clip-rule="evenodd" d="M582.372 477.288L583.461 487.98L581.257 489.456C578.182 491.514 575.672 495.632 575.174 499.434C574.025 508.197 574.025 516.458 575.174 523.894C575.672 527.121 578.182 528.34 581.257 526.848L586.008 524.543C593.509 520.904 601.045 516.553 608.546 511.531L613.297 508.35C616.371 506.292 618.882 502.174 619.38 498.372C620.529 489.609 620.529 481.348 619.38 473.912C618.882 470.685 616.371 469.466 613.297 470.958L611.092 472.027L612.182 460.077C612.31 458.668 612.31 457.321 612.182 456.061L612.109 455.351C611.343 447.825 605.917 444.652 599.021 447.697C597.862 448.208 596.692 448.884 595.533 449.71C588.637 454.629 583.211 464.067 582.444 472.479L582.372 473.272C582.243 474.68 582.243 476.027 582.372 477.288ZM598.464 453.48C597.675 453.829 596.878 454.289 596.09 454.851C591.394 458.2 587.7 464.626 587.178 470.353L587.106 471.146C587.016 472.129 587.016 473.068 587.106 473.947L588.213 484.818C594.249 480.887 600.304 477.391 606.34 474.353L607.448 462.203C607.537 461.22 607.537 460.281 607.448 459.402L607.375 458.692C606.853 453.568 603.159 451.407 598.464 453.48ZM597.277 493.403C594.646 494.922 592.514 498.615 592.514 501.653C592.514 504.691 594.646 505.922 597.277 504.403C599.908 502.884 602.04 499.191 602.04 496.153C602.04 493.115 599.908 491.884 597.277 493.403Z" fill="white"/>
<path fill-rule="evenodd" clip-rule="evenodd" d="M482.085 476.221L480.996 486.914L483.2 488.39C486.275 490.448 488.785 494.566 489.283 498.368C490.432 507.13 490.432 515.392 489.283 522.828C488.785 526.054 486.275 527.274 483.2 525.782L478.449 523.477C470.948 519.838 463.412 515.486 455.911 510.464L451.16 507.283C448.086 505.225 445.575 501.107 445.077 497.305C443.929 488.543 443.929 480.282 445.077 472.845C445.575 469.619 448.086 468.4 451.16 469.891L453.365 470.961L452.275 459.011C452.147 457.602 452.147 456.255 452.275 454.995L452.348 454.285C453.114 446.758 458.54 443.585 465.437 446.63C466.595 447.142 467.765 447.817 468.924 448.644C475.82 453.562 481.246 463 482.013 471.412L482.085 472.205C482.214 473.614 482.214 474.961 482.085 476.221ZM465.993 452.414C466.782 452.762 467.579 453.222 468.367 453.785C473.063 457.134 476.757 463.559 477.279 469.286L477.351 470.079C477.441 471.062 477.441 472.002 477.351 472.881L476.244 483.752C470.208 479.82 464.153 476.324 458.117 473.287L457.009 461.137C456.92 460.154 456.92 459.214 457.009 458.335L457.082 457.626C457.604 452.501 461.298 450.341 465.993 452.414ZM467.18 492.337C469.811 493.855 471.943 497.549 471.943 500.587C471.943 503.624 469.811 504.856 467.18 503.337C464.55 501.818 462.417 498.124 462.417 495.087C462.417 492.049 464.55 490.818 467.18 492.337Z" fill="white"/>
<circle r="78.475" transform="matrix(0.866025 -0.5 0 1 614.769 484.445)" stroke="url(#paint7_linear_1215_1292)"/>
<circle r="67.1154" transform="matrix(0.866025 -0.5 0 1 639.057 501.53)" stroke="url(#paint8_linear_1215_1292)"/>
<circle r="55.7749" transform="matrix(0.866025 -0.5 0 1 669.757 515.446)" stroke="url(#paint9_linear_1215_1292)"/>
<circle r="39.7312" transform="matrix(0.866025 -0.5 0 1 700.65 529.768)" stroke="url(#paint10_linear_1215_1292)"/>
<circle r="24.919" transform="matrix(0.866025 -0.5 0 1 727.279 542.739)" stroke="url(#paint11_linear_1215_1292)"/>
<path fill-rule="evenodd" clip-rule="evenodd" d="M726.357 538.912L727.698 552.073L724.985 553.89C721.201 556.423 718.111 561.492 717.498 566.171C716.084 576.957 716.084 587.126 717.498 596.279C718.111 600.25 721.201 601.751 724.985 599.915L730.833 597.078C740.065 592.598 749.342 587.242 758.575 581.061L764.423 577.146C768.207 574.612 771.297 569.544 771.91 564.864C773.324 554.078 773.324 543.91 771.91 534.757C771.297 530.785 768.207 529.284 764.423 531.12L761.709 532.437L763.05 517.728C763.208 515.994 763.208 514.336 763.05 512.784L762.961 511.911C762.017 502.647 755.339 498.741 746.85 502.489C745.424 503.119 743.983 503.95 742.557 504.967C734.069 511.021 727.39 522.639 726.446 532.993L726.357 533.969C726.199 535.703 726.199 537.361 726.357 538.912ZM746.165 509.608C745.194 510.037 744.213 510.603 743.242 511.295C737.463 515.417 732.916 523.327 732.274 530.376L732.185 531.352C732.074 532.562 732.074 533.718 732.185 534.8L733.548 548.181C740.977 543.342 748.43 539.039 755.859 535.3L757.223 520.344C757.333 519.135 757.333 517.978 757.223 516.896L757.134 516.023C756.491 509.716 751.944 507.056 746.165 509.608ZM744.704 558.748C741.466 560.617 738.841 565.164 738.841 568.903C738.841 572.642 741.466 574.157 744.704 572.288C747.942 570.418 750.567 565.872 750.567 562.133C750.567 558.394 747.942 556.878 744.704 558.748Z" fill="#EAEAEA"/>
<path fill-rule="evenodd" clip-rule="evenodd" d="M730.623 541.045L731.964 554.206L729.251 556.023C725.467 558.556 722.377 563.625 721.763 568.304C720.35 579.09 720.35 589.258 721.763 598.412C722.377 602.383 725.467 603.884 729.251 602.048L735.098 599.211C744.331 594.731 753.608 589.375 762.841 583.194L768.689 579.278C772.472 576.745 775.562 571.677 776.176 566.997C777.589 556.211 777.589 546.043 776.176 536.889C775.562 532.918 772.472 531.417 768.689 533.253L765.975 534.57L767.316 519.861C767.474 518.127 767.474 516.469 767.316 514.917L767.227 514.044C766.283 504.78 759.604 500.874 751.116 504.622C749.69 505.251 748.249 506.083 746.823 507.1C738.334 513.154 731.656 524.771 730.712 535.125L730.623 536.102C730.465 537.836 730.465 539.494 730.623 541.045ZM750.431 511.741C749.46 512.169 748.479 512.736 747.508 513.428C741.729 517.55 737.182 525.459 736.539 532.509L736.45 533.485C736.34 534.694 736.34 535.851 736.45 536.933L737.814 550.314C745.243 545.474 752.696 541.172 760.125 537.432L761.488 522.477C761.599 521.268 761.599 520.111 761.488 519.029L761.399 518.156C760.757 511.848 756.21 509.189 750.431 511.741ZM748.969 560.881C745.731 562.75 743.106 567.297 743.106 571.036C743.106 574.775 745.731 576.29 748.969 574.421C752.207 572.551 754.832 568.005 754.832 564.266C754.832 560.527 752.207 559.011 748.969 560.881Z" fill="white"/>
<g filter="url(#filter4_d_1215_1292)">
<path d="M428.171 640.471L423.713 624.301L416.251 628.89L419.87 643.526L428.171 640.471Z" fill="#0FA959"/>
<path d="M359.387 648.332L363.846 664.502L371.307 659.913L367.688 645.276L359.387 648.332Z" fill="#0FA959"/>
<ellipse rx="34.5561" ry="16.7354" transform="matrix(-0.930458 0.366399 0.366399 0.930458 395.539 650.858)" fill="#0FA959"/>
<ellipse rx="34.5561" ry="16.7354" transform="matrix(-0.930458 0.366399 0.366399 0.930458 391.299 636.211)" fill="#00C860"/>
</g>
<g filter="url(#filter5_d_1215_1292)">
<path d="M277.282 550.453L280.864 539.818L275.009 539.569L271.535 549.038L277.282 550.453Z" fill="#0FA959"/>
<path d="M236.205 529.055L232.622 539.689L238.477 539.939L241.951 530.469L236.205 529.055Z" fill="#0FA959"/>
<ellipse rx="23.1178" ry="11.1959" transform="matrix(-0.976144 -0.217122 -0.217122 0.976144 255.302 543.993)" fill="#0FA959"/>
<ellipse rx="23.1178" ry="11.1959" transform="matrix(-0.976144 -0.217122 -0.217122 0.976144 258.434 534.29)" fill="#00C860"/>
</g>
<g filter="url(#filter6_d_1215_1292)">
<path d="M318.49 373.851L313.412 368.893L311.664 372.161L316.108 376.737L318.49 373.851Z" fill="#0FA959"/>
<path d="M295.03 391.39L300.107 396.348L301.855 393.08L297.412 388.503L295.03 391.39Z" fill="#0FA959"/>
<ellipse rx="14.6204" ry="7.08062" transform="matrix(-0.618954 0.785427 0.785427 0.618954 308.778 384.606)" fill="#0FA959"/>
<ellipse rx="14.6204" ry="7.08062" transform="matrix(-0.618954 0.785427 0.785427 0.618954 304.106 380.153)" fill="#00C860"/>
</g>
</g>
<defs>
<filter id="filter0_d_1215_1292" x="572" y="225.941" width="28.0469" height="43.1055" filterUnits="userSpaceOnUse" color-interpolation-filters="sRGB">
<feFlood flood-opacity="0" result="BackgroundImageFix"/>
<feColorMatrix in="SourceAlpha" type="matrix" values="0 0 0 0 0 0 0 0 0 0 0 0 0 0 0 0 0 0 127 0" result="hardAlpha"/>
<feOffset dy="10"/>
<feGaussianBlur stdDeviation="2"/>
<feComposite in2="hardAlpha" operator="out"/>
<feColorMatrix type="matrix" values="0 0 0 0 0 0 0 0 0 0 0 0 0 0 0 0 0 0 0.1 0"/>
<feBlend mode="normal" in2="BackgroundImageFix" result="effect1_dropShadow_1215_1292"/>
<feBlend mode="normal" in="SourceGraphic" in2="effect1_dropShadow_1215_1292" result="shape"/>
</filter>
<filter id="filter1_d_1215_1292" x="610.07" y="127.035" width="32.2793" height="36.4844" filterUnits="userSpaceOnUse" color-interpolation-filters="sRGB">
<feFlood flood-opacity="0" result="BackgroundImageFix"/>
<feColorMatrix in="SourceAlpha" type="matrix" values="0 0 0 0 0 0 0 0 0 0 0 0 0 0 0 0 0 0 127 0" result="hardAlpha"/>
<feOffset dy="10"/>
<feGaussianBlur stdDeviation="2"/>
<feComposite in2="hardAlpha" operator="out"/>
<feColorMatrix type="matrix" values="0 0 0 0 0 0 0 0 0 0 0 0 0 0 0 0 0 0 0.1 0"/>
<feBlend mode="normal" in2="BackgroundImageFix" result="effect1_dropShadow_1215_1292"/>
<feBlend mode="normal" in="SourceGraphic" in2="effect1_dropShadow_1215_1292" result="shape"/>
</filter>
<filter id="filter2_d_1215_1292" x="431.543" y="308.816" width="38.5859" height="35.0059" filterUnits="userSpaceOnUse" color-interpolation-filters="sRGB">
<feFlood flood-opacity="0" result="BackgroundImageFix"/>
<feColorMatrix in="SourceAlpha" type="matrix" values="0 0 0 0 0 0 0 0 0 0 0 0 0 0 0 0 0 0 127 0" result="hardAlpha"/>
<feOffset dy="10"/>
<feGaussianBlur stdDeviation="2"/>
<feComposite in2="hardAlpha" operator="out"/>
<feColorMatrix type="matrix" values="0 0 0 0 0 0 0 0 0 0 0 0 0 0 0 0 0 0 0.1 0"/>
<feBlend mode="normal" in2="BackgroundImageFix" result="effect1_dropShadow_1215_1292"/>
<feBlend mode="normal" in="SourceGraphic" in2="effect1_dropShadow_1215_1292" result="shape"/>
</filter>
<filter id="filter3_d_1215_1292" x="451.732" y="61" width="150.639" height="285.17" filterUnits="userSpaceOnUse" color-interpolation-filters="sRGB">
<feFlood flood-opacity="0" result="BackgroundImageFix"/>
<feColorMatrix in="SourceAlpha" type="matrix" values="0 0 0 0 0 0 0 0 0 0 0 0 0 0 0 0 0 0 127 0" result="hardAlpha"/>
<feOffset dy="4"/>
<feGaussianBlur stdDeviation="2"/>
<feComposite in2="hardAlpha" operator="out"/>
<feColorMatrix type="matrix" values="0 0 0 0 0 0 0 0 0 0 0 0 0 0 0 0 0 0 0.15 0"/>
<feBlend mode="normal" in2="BackgroundImageFix" result="effect1_dropShadow_1215_1292"/>
<feBlend mode="normal" in="SourceGraphic" in2="effect1_dropShadow_1215_1292" result="shape"/>
</filter>
<filter id="filter4_d_1215_1292" x="354.561" y="616.141" width="77.7168" height="68.7871" filterUnits="userSpaceOnUse" color-interpolation-filters="sRGB">
<feFlood flood-opacity="0" result="BackgroundImageFix"/>
<feColorMatrix in="SourceAlpha" type="matrix" values="0 0 0 0 0 0 0 0 0 0 0 0 0 0 0 0 0 0 127 0" result="hardAlpha"/>
<feOffset dy="10"/>
<feGaussianBlur stdDeviation="2"/>
<feComposite in2="hardAlpha" operator="out"/>
<feColorMatrix type="matrix" values="0 0 0 0 0 0 0 0 0 0 0 0 0 0 0 0 0 0 0.1 0"/>
<feBlend mode="normal" in2="BackgroundImageFix" result="effect1_dropShadow_1215_1292"/>
<feBlend mode="normal" in="SourceGraphic" in2="effect1_dropShadow_1215_1292" result="shape"/>
</filter>
<filter id="filter5_d_1215_1292" x="228.604" y="522.262" width="56.5293" height="47.7617" filterUnits="userSpaceOnUse" color-interpolation-filters="sRGB">
<feFlood flood-opacity="0" result="BackgroundImageFix"/>
<feColorMatrix in="SourceAlpha" type="matrix" values="0 0 0 0 0 0 0 0 0 0 0 0 0 0 0 0 0 0 127 0" result="hardAlpha"/>
<feOffset dy="10"/>
<feGaussianBlur stdDeviation="2"/>
<feComposite in2="hardAlpha" operator="out"/>
<feColorMatrix type="matrix" values="0 0 0 0 0 0 0 0 0 0 0 0 0 0 0 0 0 0 0.1 0"/>
<feBlend mode="normal" in2="BackgroundImageFix" result="effect1_dropShadow_1215_1292"/>
<feBlend mode="normal" in="SourceGraphic" in2="effect1_dropShadow_1215_1292" result="shape"/>
</filter>
<filter id="filter6_d_1215_1292" x="289.482" y="367.859" width="33.918" height="43.041" filterUnits="userSpaceOnUse" color-interpolation-filters="sRGB">
<feFlood flood-opacity="0" result="BackgroundImageFix"/>
<feColorMatrix in="SourceAlpha" type="matrix" values="0 0 0 0 0 0 0 0 0 0 0 0 0 0 0 0 0 0 127 0" result="hardAlpha"/>
<feOffset dy="10"/>
<feGaussianBlur stdDeviation="2"/>
<feComposite in2="hardAlpha" operator="out"/>
<feColorMatrix type="matrix" values="0 0 0 0 0 0 0 0 0 0 0 0 0 0 0 0 0 0 0.1 0"/>
<feBlend mode="normal" in2="BackgroundImageFix" result="effect1_dropShadow_1215_1292"/>
<feBlend mode="normal" in="SourceGraphic" in2="effect1_dropShadow_1215_1292" result="shape"/>
</filter>
<linearGradient id="paint0_linear_1215_1292" x1="1151" y1="-153.5" x2="-199" y2="510.5" gradientUnits="userSpaceOnUse">
<stop stop-color="white"/>
<stop offset="1" stop-color="white" stop-opacity="0"/>
</linearGradient>
<linearGradient id="paint1_linear_1215_1292" x1="491.991" y1="375.58" x2="393.868" y2="517.826" gradientUnits="userSpaceOnUse">
<stop stop-color="#A281FF" stop-opacity="0.74"/>
<stop offset="1" stop-color="#77D1FF"/>
</linearGradient>
<linearGradient id="paint2_linear_1215_1292" x1="532.514" y1="436.363" x2="532.514" y2="307.865" gradientUnits="userSpaceOnUse">
<stop stop-color="#A281FF"/>
<stop offset="1" stop-color="#52C4FF"/>
</linearGradient>
<linearGradient id="paint3_linear_1215_1292" x1="662.612" y1="355.318" x2="727.279" y2="526.138" gradientUnits="userSpaceOnUse">
<stop stop-color="#A281FF"/>
<stop offset="1" stop-color="#79CBFF"/>
</linearGradient>
<linearGradient id="paint4_linear_1215_1292" x1="497.821" y1="547.4" x2="497.821" y2="377.399" gradientUnits="userSpaceOnUse">
<stop stop-color="white"/>
<stop offset="1" stop-color="#5AC8FF"/>
</linearGradient>
<linearGradient id="paint5_linear_1215_1292" x1="555.646" y1="578.878" x2="555.646" y2="376.115" gradientUnits="userSpaceOnUse">
<stop stop-color="white"/>
<stop offset="1" stop-color="#5AC8FF"/>
</linearGradient>
<linearGradient id="paint6_linear_1215_1292" x1="695.587" y1="435.704" x2="695.587" y2="245.482" gradientUnits="userSpaceOnUse">
<stop stop-color="white"/>
<stop offset="1" stop-color="#5AC8FF"/>
</linearGradient>
<linearGradient id="paint7_linear_1215_1292" x1="78.975" y1="0" x2="78.975" y2="157.95" gradientUnits="userSpaceOnUse">
<stop stop-color="white" stop-opacity="0.65"/>
<stop offset="1" stop-color="white" stop-opacity="0.28"/>
</linearGradient>
<linearGradient id="paint8_linear_1215_1292" x1="67.6154" y1="0" x2="67.6154" y2="135.231" gradientUnits="userSpaceOnUse">
<stop stop-color="white" stop-opacity="0.65"/>
<stop offset="1" stop-color="white" stop-opacity="0.28"/>
</linearGradient>
<linearGradient id="paint9_linear_1215_1292" x1="56.2749" y1="0" x2="56.2749" y2="112.55" gradientUnits="userSpaceOnUse">
<stop stop-color="white" stop-opacity="0.65"/>
<stop offset="1" stop-color="white" stop-opacity="0.28"/>
</linearGradient>
<linearGradient id="paint10_linear_1215_1292" x1="40.2312" y1="0" x2="40.2312" y2="80.4624" gradientUnits="userSpaceOnUse">
<stop stop-color="white" stop-opacity="0.65"/>
<stop offset="1" stop-color="white" stop-opacity="0.28"/>
</linearGradient>
<linearGradient id="paint11_linear_1215_1292" x1="25.419" y1="0" x2="25.419" y2="50.838" gradientUnits="userSpaceOnUse">
<stop stop-color="white" stop-opacity="0.65"/>
<stop offset="1" stop-color="white" stop-opacity="0.28"/>
</linearGradient>
<clipPath id="clip0_1215_1292">
<rect width="1062" height="748" fill="white"/>
</clipPath>
</defs>
</svg>
